<?xml version="1.0" encoding="UTF-8" standalone="no"?>
<!-- Created with Inkscape (http://www.inkscape.org/) -->

<svg
   xmlns:dc="http://purl.org/dc/elements/1.1/"
   xmlns:cc="http://creativecommons.org/ns#"
   xmlns:rdf="http://www.w3.org/1999/02/22-rdf-syntax-ns#"
   xmlns:svg="http://www.w3.org/2000/svg"
   xmlns="http://www.w3.org/2000/svg"
   xmlns:sodipodi="http://sodipodi.sourceforge.net/DTD/sodipodi-0.dtd"
   xmlns:inkscape="http://www.inkscape.org/namespaces/inkscape"
   width="6in"
   height="9in"
   viewBox="0 0 540 810"
   id="svg4752"
   version="1.1"
   inkscape:version="0.91 r"
   inkscape:export-filename="/home/carsten/git/ayerigrammar/misc/cover/coverfront-6x9in.png"
   inkscape:export-xdpi="300"
   inkscape:export-ydpi="300"
   sodipodi:docname="coverfront-6x9in.svg">
  <defs
     id="defs4754">
    <filter
       inkscape:collect="always"
       style="color-interpolation-filters:sRGB"
       id="filter4354"
       x="-0.030976446"
       width="1.0619529"
       y="-0.042968316"
       height="1.0859366">
      <feGaussianBlur
         inkscape:collect="always"
         stdDeviation="9.7059442"
         id="feGaussianBlur4356" />
    </filter>
  </defs>
  <sodipodi:namedview
     id="base"
     pagecolor="#ffffff"
     bordercolor="#666666"
     borderopacity="1.0"
     inkscape:pageopacity="0.0"
     inkscape:pageshadow="2"
     inkscape:zoom="1"
     inkscape:cx="230.02424"
     inkscape:cy="305.30249"
     inkscape:document-units="in"
     inkscape:current-layer="g5451"
     showgrid="false"
     showborder="false"
     units="in"
     width="6in"
     showguides="true"
     inkscape:guide-bbox="true"
     inkscape:snap-bbox="false"
     inkscape:window-width="1920"
     inkscape:window-height="997"
     inkscape:window-x="0"
     inkscape:window-y="0"
     inkscape:window-maximized="1">
    <sodipodi:guide
       position="0,0"
       orientation="1,0"
       id="guide5300"
       inkscape:label=""
       inkscape:color="rgb(0,0,255)" />
    <sodipodi:guide
       position="540,810"
       orientation="1,0"
       id="guide5304"
       inkscape:label=""
       inkscape:color="rgb(0,0,255)" />
    <sodipodi:guide
       position="0,0"
       orientation="0,1"
       id="guide5306" />
    <sodipodi:guide
       position="0,810"
       orientation="0,1"
       id="guide5308"
       inkscape:label=""
       inkscape:color="rgb(0,0,255)" />
    <sodipodi:guide
       position="352.13918,500.6316"
       orientation="0,1"
       id="guide5310"
       inkscape:label=""
       inkscape:color="rgb(0,0,255)" />
    <sodipodi:guide
       position="0,309.39247"
       orientation="0,1"
       id="guide5312"
       inkscape:label=""
       inkscape:color="rgb(0,0,255)" />
    <sodipodi:guide
       position="0,90.9"
       orientation="0,1"
       id="guide5348"
       inkscape:label=""
       inkscape:color="rgb(0,0,255)" />
    <sodipodi:guide
       position="0,691.82259"
       orientation="0,1"
       id="guide5409"
       inkscape:label=""
       inkscape:color="rgb(0,0,255)" />
    <sodipodi:guide
       position="48.69177,0"
       orientation="1,0"
       id="guide5447"
       inkscape:label=""
       inkscape:color="rgb(0,0,255)" />
    <sodipodi:guide
       position="491.30823,0"
       orientation="1,0"
       id="guide5449"
       inkscape:label=""
       inkscape:color="rgb(0,0,255)" />
    <inkscape:grid
       type="xygrid"
       id="grid5781" />
  </sodipodi:namedview>
  <metadata
     id="metadata4757">
    <rdf:RDF>
      <cc:Work
         rdf:about="">
        <dc:format>image/svg+xml</dc:format>
        <dc:type
           rdf:resource="http://purl.org/dc/dcmitype/StillImage" />
        <dc:title />
      </cc:Work>
    </rdf:RDF>
  </metadata>
  <g
     inkscape:label="Background"
     inkscape:groupmode="layer"
     id="layer1"
     transform="translate(0,-242.3622)">
    <rect
       style="color:#000000;clip-rule:nonzero;display:inline;overflow:visible;visibility:visible;opacity:1;isolation:auto;mix-blend-mode:normal;color-interpolation:sRGB;color-interpolation-filters:linearRGB;solid-color:#000000;solid-opacity:1;fill:#000080;fill-opacity:1;fill-rule:evenodd;stroke:none;stroke-width:2.20608068;stroke-linecap:butt;stroke-linejoin:bevel;stroke-miterlimit:4;stroke-dasharray:none;stroke-dashoffset:0;stroke-opacity:1;color-rendering:auto;image-rendering:auto;shape-rendering:auto;text-rendering:auto;enable-background:accumulate"
       id="rect3340-3"
       width="946.23633"
       height="1133.8273"
       x="-190.13486"
       y="78.249229" />
    <g
       id="g5451"
       transform="translate(31.818638,0)">
      <g
         transform="matrix(1.0712936,0,0,-1.0712936,-1511.8509,727.41203)"
         id="g5389"
         inkscape:export-filename="/home/carsten/Desktop/Conlang Stuff/2012-03-17 seal thing 3.png"
         inkscape:export-xdpi="96"
         inkscape:export-ydpi="96"
         style="display:inline;fill:none;stroke:#0000e8;stroke-opacity:1;filter:url(#filter4354)">
        <path
           d="m 1914.0864,1138.5701 c -1.6712,-3.2813 -3.2191,-6.6934 -4.6279,-10.2239 -3.8486,-9.6447 -6.6562,-20.1709 -8.1674,-31.2757 -1.5111,-11.1049 -1.7233,-22.786 -0.4913,-34.7271 1.2319,-11.9411 3.9102,-24.1401 8.0336,-36.302 3.8497,-10.803 8.608,-21.2913 14.0815,-31.26854 5.4735,-9.97725 11.662,-19.44272 18.3174,-28.28187 6.6553,-8.83913 13.7769,-17.05197 21.0682,-24.61075 7.2913,-7.55876 14.7515,-14.4644 22.044,-20.76853 14.5849,-12.60829 28.5105,-22.79016 38.7896,-31.54824 5.1396,-4.37906 9.3628,-8.41124 12.2948,-12.21144 2.932,-3.80023 4.5709,-7.37251 8.3419,-1.766 3.771,5.60651 7.9993,9.63853 13.1418,14.01749 10.2851,8.75793 24.2083,18.93992 38.7872,31.54665 7.2894,6.30336 14.7458,13.20772 22.0328,20.76461 7.2871,7.55692 14.4042,15.76726 21.0552,24.60317 6.651,8.8359 12.8354,18.29742 18.3054,28.27013 5.47,9.97262 10.2254,20.45582 14.0732,31.25332 4.1234,12.1619 6.8016,24.3609 8.0336,36.302 1.232,11.9411 1.0198,23.6222 -0.4914,34.7271 -1.5112,11.1048 -4.3187,21.6309 -8.1673,31.2756 -1.4088,3.5306 -2.9567,6.9427 -4.6279,10.224 m -23.1028,30.4181 c -2.5312,2.2405 -5.1195,4.2839 -7.74,6.1348 -7.5036,5.3001 -15.2654,9.0241 -22.7772,11.3821 -7.5118,2.358 -14.7696,3.3513 -21.414,3.2664 -6.6443,-0.085 -12.6737,-1.2462 -17.9183,-3.1454 -5.1584,-1.8452 -9.5954,-4.3331 -13.3488,-7.0875 -3.7535,-2.7545 -6.8259,-5.7756 -9.354,-8.7847 -2.528,-3.0092 -4.5154,-6.0077 -6.1488,-8.8033 -1.6334,-2.7957 -2.917,-5.3904 -4.0269,-7.6534 -1.6386,-3.3409 -3.1394,-6.4119 -4.7162,-9.1297 -1.5768,-2.7177 -3.2271,-5.0843 -5.0491,-7.029 -3.644,-3.8893 -8.0006,-6.0739 -13.1174,-6.0699 -3.0911,0.1575 -6.1251,0.8945 -8.8483,2.1093 -2.7231,1.2148 -5.1311,2.9109 -7.1002,4.9728 -1.9691,2.062 -3.5006,4.4933 -4.6202,7.109 -1.1195,2.6158 -1.8314,5.4165 -2.2643,8.1167 -0.267,3.3764 -0.1367,5.9895 0.059,7.7707 0.1957,1.7812 0.4365,2.7402 0.4365,2.7402 l -53.5478,12.1469 m -9.3988,-16.7929 c -0.1327,-1.9259 -0.2254,-3.8804 -0.2789,-5.8649 0.8094,-30.0331 10.606,-53.1735 31.7388,-74.9701 l 10e-5,0 c 22.2775,-20.6766 45.9285,-30.2617 76.6242,-31.0536 l -10e-5,0 0,0 c 30.6957,0.7919 54.3467,10.377 76.6242,31.0536 l 0,10e-5 c 21.1328,21.7965 30.9294,44.937 31.7388,74.9701 -0.053,1.9846 -0.1462,3.9391 -0.2789,5.865 m -9.3988,16.7928 -53.5478,-12.1469 c 0,0 0.2408,-0.959 0.4365,-2.7402 0.1957,-1.7813 0.326,-4.3943 0.059,-7.7707 -0.4329,-2.7003 -1.1448,-5.501 -2.2644,-8.1168 -1.1195,-2.6157 -2.651,-5.047 -4.6201,-7.1089 -1.9691,-2.062 -4.3771,-3.7581 -7.1003,-4.9729 -2.7231,-1.2148 -5.7571,-1.9518 -8.8482,-2.1093 -5.1168,0 -9.4734,2.1806 -13.1174,6.07 -1.822,1.9447 -3.4723,4.3112 -5.0491,7.029 -1.5768,2.7178 -3.0776,5.7888 -4.7162,9.1296 -1.1099,2.263 -2.3935,4.8578 -4.0269,7.6534 -1.6334,2.7957 -3.6208,5.7942 -6.1488,8.8033 -2.5281,3.0092 -5.6006,6.0303 -9.354,8.7847 -3.7534,2.7545 -8.1904,5.2424 -13.3488,7.0875 -5.2446,1.8993 -11.274,3.0607 -17.9184,3.1455 -6.6443,0.085 -13.9021,-0.9085 -21.4139,-3.2665 -7.5118,-2.3579 -15.2737,-6.0819 -22.7772,-11.382 -2.6378,-1.8633 -5.243,-3.9214 -7.7902,-6.1794"
           style="color:#000000;display:inline;overflow:visible;visibility:visible;fill:none;fill-opacity:1;stroke:#0000e8;stroke-width:18.32095528;stroke-linecap:butt;stroke-linejoin:bevel;stroke-miterlimit:4;stroke-dasharray:none;stroke-dashoffset:0;stroke-opacity:1;marker:none;enable-background:accumulate"
           transform="matrix(1,0,0,-1,-199.82781,1205.4671)"
           id="path5391"
           inkscape:connector-curvature="0"
           sodipodi:nodetypes="cssscsssssscssssscssscccsccsccscscccccscccccccccccccccscccccssccscccccc" />
        <path
           style="color:#000000;display:inline;overflow:visible;visibility:visible;fill:none;stroke:#0000e8;stroke-width:18.32095528;stroke-linecap:butt;stroke-linejoin:bevel;stroke-miterlimit:4;stroke-dasharray:none;stroke-dashoffset:0;stroke-opacity:1;marker:none;enable-background:accumulate"
           d="m 1594.4489,-10.94165 c 22.265,21.145201 45.7665,31.091322 76.1396,32.223329 l 10e-5,-7e-5 c 30.3556,-0.469307 53.6456,-9.904868 75.4546,-30.5691452 20.6642,-21.8089408 30.0998,-45.0989868 30.5691,-75.4545868 -0.4851,-13.017058 -2.5892,-24.772037 -6.4999,-35.708287 7.507,9.70681 13.6353,21.424207 17.9849,35.833587 6.0341,24.002456 6.926,47.917869 -0.8941,72.619583 l -78.4349,-49.429804 c 0,0 -0.5078,0.848386 -1.6289,2.246266 -1.1212,1.39795 -2.8768,3.337756 -5.453,5.536434 -2.2155,1.603294 -4.6993,3.080298 -7.3407,4.138271 -2.6411,1.057974 -5.4433,1.694228 -8.2936,1.759848 -2.8504,0.06569 -5.7525,-0.437699 -8.5371,-1.504299 -2.7845,-1.066529 -5.451,-2.690754 -7.7481,-4.765122 -3.6181,-3.618124 -5.1568,-8.240622 -4.9832,-13.567541 0.087,-2.663459 0.5932,-5.503765 1.4,-8.540506 0.8068,-3.036741 1.9171,-6.269492 3.1207,-9.790459 0.8154,-2.385001 1.7425,-5.127444 2.5643,-8.25922 0.8219,-3.131846 1.5369,-6.657408 1.877,-10.572738 0.3402,-3.91546 0.3039,-8.22428 -0.4025,-12.82599 -0.7063,-4.60178 -2.0846,-9.49843 -4.4274,-14.45065 -2.3655,-5.0515 -5.8077,-10.13616 -10.446,-14.89443 -4.6382,-4.75833 -10.4727,-9.18786 -17.4517,-12.83215 -6.9789,-3.64435 -15.1007,-6.49958 -24.1542,-8.05762 -9.0536,-1.55811 -19.0355,-1.81422 -29.6141,-0.274 -9.3525,1.43083 -19.0027,4.17023 -28.5438,8.26869 -9.5412,4.09846 -18.9696,9.55634 -27.8904,16.34004 -8.9209,6.78384 -17.3307,14.89357 -24.9032,24.20836 -7.5726,9.31472 -14.3047,19.834535 -19.9887,31.349967 -4.9168,10.361037 -8.9685,21.142019 -12.1532,32.067356 -3.1846,10.92533 -5.5017,21.994358 -7.0459,32.95066 -1.5442,10.956216 -2.3158,21.7993024 -2.505,32.2998947 -0.1891,10.5005783 0.2031,20.6587613 0.9019,30.2730303 1.3977,19.228489 4.0449,36.275045 5.1205,49.736364 0.5377,6.730709 0.6728,12.568138 0.059,17.328528 -0.6139,4.7604 -1.981,8.44526 4.6499,7.14736 6.6309,-1.2979 12.4718,-1.15911 19.2045,-0.61923 13.4654,1.07987 30.5104,3.7253 49.7335,5.11984 9.6116,0.69723 19.7661,1.08758 30.2624,0.89674 10.4963,-0.19079 21.3344,-0.96383 32.2853,-2.50879 10.9509,-1.54496 22.0142,-3.86223 32.9339,-7.04613 10.9196,-3.18387 21.6949,-7.234 32.0507,-12.148203 11.5154,-5.684064 22.0352,-12.416265 31.35,-19.988742 9.3148,-7.572477 17.4245,-15.98231 24.2083,-24.90324 6.7837,-8.920859 12.2415,-18.349138 16.34,-27.890342 4.0985,-9.541133 6.8378,-19.1913728 8.2686,-28.5437793 l 0,0 c 1.5403,-10.5785297 1.2842,-20.5606147 -0.2739,-29.6140557 -1.5581,-9.053583 -4.4133,-17.17527 -8.0576,-24.154273 -3.6443,-6.979002 -8.0739,-12.813411 -12.8323,-17.451678 -4.7583,-4.638126 -9.8428,-8.080463 -14.8942,-10.446018 -4.9523,-2.342786 -9.849,-3.721008 -14.4507,-4.427408 -4.6018,-0.706399 -8.9106,-0.742674 -12.826,-0.402555 -3.9154,0.340259 -7.4409,1.055215 -10.5727,1.877015 -3.1319,0.82187 -5.8742,1.748957 -8.2592,2.564322 -3.5211,1.203708 -6.7538,2.314007 -9.7906,3.120816 -3.0366,0.806738 -5.877,1.313239 -8.5405,1.400001 -5.3268,0.173453 -9.9522,-1.362383 -13.5674,-4.983335 -2.0744,-2.297107 -3.6986,-4.963607 -4.7652,-7.748194 -1.0666,-2.784515 -1.57,-5.686552 -1.5043,-8.536901 0.066,-2.85042 0.7019,-5.65254 1.7598,-8.2938 1.0581,-2.64125 2.5351,-5.12504 4.1383,-7.34047 2.1987,-2.57628 4.1385,-4.33188 5.5364,-5.453 1.3979,-1.12112 2.2463,-1.62896 2.2463,-1.62896 l -49.4298,-78.4349 c 24.7018,-7.82004 48.6172,-6.92816 72.6196,-0.89407 14.4093,4.3496 26.1267,10.47788 35.8337,17.98488 -10.9364,-3.91072 -22.6914,-6.01476 -35.7084,-6.49984 -30.3557,0.46931 -53.6457,9.9048 -75.4546,30.56908 -20.6643,21.80894 -30.0998,45.09891 -30.5692,75.454587 l 10e-5,7e-5 c 1.132,30.373136 11.0781,53.874579 32.2233,76.139653 z"
           id="path5393"
           inkscape:connector-curvature="0"
           sodipodi:nodetypes="cccccccccscssscsssssscssscssscsssssscssssscsssccssscsssssscssscscccccccccc" />
        <path
           sodipodi:nodetypes="cccccccccscssscsssssscssscssscsssssscssssscsssccssscsssssscssscscccccccccc"
           inkscape:connector-curvature="0"
           id="path5395"
           d="m 2085.8954,-10.941625 c 21.1451,-22.265096 31.0912,-45.766567 32.2232,-76.139703 l 0,-7.1e-5 c -0.4693,-30.355601 -9.9049,-53.645651 -30.5692,-75.454591 -21.8089,-20.66427 -45.099,-30.09984 -75.4546,-30.56914 -13.017,0.48514 -24.772,2.58921 -35.7082,6.49993 9.7068,-7.507 21.4242,-13.63528 35.8335,-17.9849 24.0025,-6.03417 47.9179,-6.92604 72.6196,0.89406 l -49.4298,78.4349 c 0,0 0.8484,0.50785 2.2463,1.62896 1.3979,1.12119 3.3377,2.87673 5.5364,5.453 1.6033,2.21551 3.0803,4.69929 4.1383,7.34062 1.058,2.64118 1.6942,5.4433 1.7598,8.29365 0.066,2.850424 -0.4377,5.752461 -1.5043,8.537047 -1.0665,2.784516 -2.6907,5.451015 -4.7651,7.748123 -3.6181,3.618124 -8.2406,5.156788 -13.5675,4.983264 -2.6635,-0.08676 -5.5038,-0.593192 -8.5405,-1.400001 -3.0368,-0.806809 -6.2695,-1.917108 -9.7905,-3.120745 -2.385,-0.815365 -5.1274,-1.742523 -8.2592,-2.564323 -3.1319,-0.82187 -6.6574,-1.536826 -10.5727,-1.877015 -3.9155,-0.340189 -8.2243,-0.303843 -12.826,0.402556 -4.6018,0.706329 -9.4985,2.084551 -14.4507,4.427408 -5.0515,2.365484 -10.1361,5.80768 -14.8944,10.446018 -4.7583,4.638125 -9.1879,10.472675 -12.8322,17.451678 -3.6443,6.978932 -6.4995,15.10069 -8.0576,24.154202 -1.5581,9.053583 -1.8142,19.035527 -0.274,29.6141266 1.4308,9.3524064 4.1702,19.0026464 8.2687,28.5437094 4.0985,9.541204 9.5563,18.969624 16.34,27.890483 6.7839,8.920859 14.8936,17.330692 24.2084,24.90317 9.3147,7.572548 19.8346,14.304699 31.35,19.988777 10.361,4.916722 21.142,8.968442 32.0674,12.153112 10.9253,3.1846 21.9943,5.50179 32.9506,7.04589 10.9563,1.54426 21.7993,2.31585 32.2999,2.505 10.5006,0.18908 20.6588,-0.20301 30.273,-0.90191 19.2285,-1.39767 36.2751,-4.04487 49.7364,-5.12038 6.7307,-0.53782 12.5681,-0.67288 17.3285,-0.059 4.7604,0.61391 8.4453,1.98103 7.1474,-4.64986 -1.2979,-6.6309 -1.1591,-12.471807 -0.6196,-19.204524 1.0799,-13.465435 3.7253,-30.510385 5.1199,-49.733507 0.6972,-9.611561 1.0875,-19.76618 0.8966,-30.262403 -0.1907,-10.496293 -0.9637,-21.334401 -2.5087,-32.285293 -1.545,-10.950892 -3.8622,-22.014214 -7.0462,-32.933923 -3.1838,-10.919567 -7.234,-21.694884 -12.1481,-32.050675 -5.6841,-11.515446 -12.4163,-22.035215 -19.9888,-31.350005 -7.5725,-9.31479 -15.9823,-17.42453 -24.9033,-24.2083 -8.9208,-6.7837 -18.3491,-12.24157 -27.8903,-16.34003 -9.5411,-4.09854 -19.1914,-6.8378 -28.5438,-8.26863 l 0,0 c -10.5785,-1.54029 -20.5606,-1.28417 -29.614,0.27394 -9.0536,1.55811 -17.1753,4.41326 -24.1543,8.05755 -6.979,3.64429 -12.8134,8.07396 -17.4517,12.83229 -4.6381,4.75833 -8.0805,9.84286 -10.446,14.89428 -2.3428,4.9523 -3.721,9.84894 -4.4274,14.45065 -0.7064,4.60185 -0.7427,8.91061 -0.4026,12.826 0.3403,3.91539 1.0552,7.440957 1.877,10.572733 0.8219,3.131847 1.749,5.874219 2.5644,8.25922 1.2037,3.521038 2.314,6.753789 3.1208,9.790529 0.8067,3.036671 1.3132,5.877048 1.4,8.540507 0.1734,5.326847 -1.3624,9.952174 -4.9834,13.56747 -2.2971,2.074368 -4.9636,3.698593 -7.7481,4.765192 -2.7846,1.06653 -5.6866,1.569919 -8.5369,1.504299 -2.8505,-0.06569 -5.6526,-0.701945 -8.2938,-1.759847 -2.6413,-1.058044 -5.1251,-2.535049 -7.3405,-4.138272 -2.5763,-2.198678 -4.3319,-4.138554 -5.453,-5.536434 -1.1211,-1.397879 -1.629,-2.246266 -1.629,-2.246266 l -78.4349,49.429805 c -7.82,-24.701786 -6.9281,-48.617198 -0.894,-72.619584 4.3496,-14.409351 10.4779,-26.126752 17.9849,-35.833702 -3.9108,10.9364 -6.0148,22.691345 -6.4999,35.708332 0.4693,30.355741 9.9048,53.645717 30.5691,75.4546574 21.8089,20.6642766 45.0989,30.0997686 75.4546,30.5691456 l 0,-7.1e-5 c 30.3732,-1.132007 53.8746,-11.0781 76.1397,-32.22328 z"
           style="color:#000000;display:inline;overflow:visible;visibility:visible;fill:none;stroke:#0000e8;stroke-width:18.32095528;stroke-linecap:butt;stroke-linejoin:bevel;stroke-miterlimit:4;stroke-dasharray:none;stroke-dashoffset:0;stroke-opacity:1;marker:none;enable-background:accumulate" />
      </g>
      <g
         style="color:#000000;clip-rule:nonzero;display:inline;overflow:visible;visibility:visible;opacity:1;isolation:auto;mix-blend-mode:normal;color-interpolation:sRGB;color-interpolation-filters:linearRGB;solid-color:#000000;solid-opacity:1;fill:none;fill-opacity:1;fill-rule:nonzero;stroke:#6969ff;stroke-width:0.93345094;stroke-linecap:butt;stroke-linejoin:bevel;stroke-miterlimit:4;stroke-dasharray:2.80035278, 0.93345092;stroke-dashoffset:0;stroke-opacity:1;marker:none;color-rendering:auto;image-rendering:auto;shape-rendering:auto;text-rendering:auto;enable-background:accumulate"
         inkscape:export-ydpi="96"
         inkscape:export-xdpi="96"
         inkscape:export-filename="/home/carsten/Desktop/Conlang Stuff/2012-03-17 seal thing 3.png"
         id="g5411"
         transform="matrix(1.6069404,0,0,-1.6069404,-2497.5331,760.42089)">
        <path
           sodipodi:nodetypes="cssscsssssscssssscssscccsccsccscscccccscccccccccccccccscccccssccscccccc"
           inkscape:connector-curvature="0"
           id="path5413"
           style="color:#000000;clip-rule:nonzero;display:inline;overflow:visible;visibility:visible;isolation:auto;mix-blend-mode:normal;color-interpolation:sRGB;color-interpolation-filters:linearRGB;solid-color:#000000;solid-opacity:1;fill:none;fill-opacity:1;fill-rule:nonzero;stroke:#6969ff;stroke-width:0.93345094;stroke-linecap:butt;stroke-linejoin:bevel;stroke-miterlimit:4;stroke-dasharray:2.80035278, 0.93345092;stroke-dashoffset:0;stroke-opacity:1;marker:none;color-rendering:auto;image-rendering:auto;shape-rendering:auto;text-rendering:auto;enable-background:accumulate"
           d="m 1714.2659,66.897 c -1.6712,3.2813 -3.2191,6.6934 -4.6279,10.2239 -3.8486,9.6447 -6.6562,20.1709 -8.1674,31.2757 -1.5111,11.1049 -1.7233,22.786 -0.4913,34.7271 1.2319,11.9411 3.9102,24.1401 8.0336,36.302 3.8497,10.803 8.608,21.2913 14.0815,31.26854 5.4735,9.97725 11.662,19.44272 18.3174,28.28187 6.6553,8.83913 13.7769,17.05197 21.0682,24.61075 7.2913,7.55876 14.7515,14.4644 22.044,20.76853 14.5849,12.60829 28.5105,22.79016 38.7896,31.54824 5.1396,4.37906 9.3628,8.41124 12.2948,12.21144 2.932,3.80023 4.5709,7.37251 8.3419,1.766 3.771,-5.60651 7.9993,-9.63853 13.1418,-14.01749 10.2851,-8.75793 24.2083,-18.93992 38.7872,-31.54665 7.2894,-6.30336 14.7458,-13.20772 22.0328,-20.76461 7.2871,-7.55692 14.4042,-15.76726 21.0552,-24.60317 6.651,-8.8359 12.8354,-18.29742 18.3054,-28.27013 5.47,-9.97262 10.2254,-20.45582 14.0732,-31.25332 4.1234,-12.1619 6.8016,-24.3609 8.0336,-36.302 1.232,-11.9411 1.0198,-23.6222 -0.4914,-34.7271 -1.5112,-11.1048 -4.3187,-21.6309 -8.1673,-31.2756 -1.4088,-3.5306 -2.9567,-6.9427 -4.6279,-10.224 m -23.1028,-30.4181 c -2.5312,-2.2405 -5.1195,-4.2839 -7.74,-6.1348 -7.5036,-5.3001 -15.2654,-9.0241 -22.7772,-11.3821 -7.5118,-2.358 -14.7696,-3.3513 -21.414,-3.2664 -6.6443,0.085 -12.6737,1.2462 -17.9183,3.1454 -5.1584,1.8452 -9.5954,4.3331 -13.3488,7.0875 -3.7535,2.7545 -6.8259,5.7756 -9.354,8.7847 -2.528,3.0092 -4.5154,6.0077 -6.1488,8.8033 -1.6334,2.7957 -2.917,5.3904 -4.0269,7.6534 -1.6386,3.3409 -3.1394,6.4119 -4.7162,9.1297 -1.5768,2.7177 -3.2271,5.0843 -5.0491,7.029 -3.644,3.8893 -8.0006,6.0739 -13.1174,6.0699 -3.0911,-0.1575 -6.1251,-0.8945 -8.8483,-2.1093 -2.7231,-1.2148 -5.1311,-2.9109 -7.1002,-4.9728 -1.9691,-2.062 -3.5006,-4.4933 -4.6202,-7.109 -1.1195,-2.6158 -1.8314,-5.4165 -2.2643,-8.1167 -0.267,-3.3764 -0.1367,-5.9895 0.059,-7.7707 0.1957,-1.7812 0.4365,-2.7402 0.4365,-2.7402 l -53.5478,-12.1469 m -9.3988,16.7929 c -0.1327,1.9259 -0.2254,3.8804 -0.2789,5.8649 0.8094,30.0331 10.606,53.1735 31.7388,74.9701 l 10e-5,0 c 22.2775,20.6766 45.9285,30.2617 76.6242,31.0536 l -10e-5,0 0,0 c 30.6957,-0.7919 54.3467,-10.377 76.6242,-31.0536 l 0,-1e-4 c 21.1328,-21.7965 30.9294,-44.937 31.7388,-74.9701 -0.053,-1.9846 -0.1462,-3.9391 -0.2789,-5.865 m -9.3988,-16.7928 -53.5478,12.1469 c 0,0 0.2408,0.959 0.4365,2.7402 0.1957,1.7813 0.326,4.3943 0.059,7.7707 -0.4329,2.7003 -1.1448,5.501 -2.2644,8.1168 -1.1195,2.6157 -2.651,5.047 -4.6201,7.1089 -1.9691,2.062 -4.3771,3.7581 -7.1003,4.9729 -2.7231,1.2148 -5.7571,1.9518 -8.8482,2.1093 -5.1168,0 -9.4734,-2.1806 -13.1174,-6.07 -1.822,-1.9447 -3.4723,-4.3112 -5.0491,-7.029 -1.5768,-2.7178 -3.0776,-5.7888 -4.7162,-9.1296 -1.1099,-2.263 -2.3935,-4.8578 -4.0269,-7.6534 -1.6334,-2.7957 -3.6208,-5.7942 -6.1488,-8.8033 -2.5281,-3.0092 -5.6006,-6.0303 -9.354,-8.7847 -3.7534,-2.7545 -8.1904,-5.2424 -13.3488,-7.0875 -5.2446,-1.8993 -11.274,-3.0607 -17.9184,-3.1455 -6.6443,-0.085 -13.9021,0.9085 -21.4139,3.2665 -7.5118,2.3579 -15.2737,6.0819 -22.7772,11.382 -2.6378,1.8633 -5.243,3.9214 -7.7902,6.1794" />
        <path
           sodipodi:nodetypes="cccccccccscssscsssssscssscssscsssssscssssscsssccssscsssssscssscscccccccccc"
           inkscape:connector-curvature="0"
           id="path5415"
           d="m 1594.4489,-10.94165 c 22.265,21.145201 45.7665,31.091322 76.1396,32.223329 l 10e-5,-7e-5 c 30.3556,-0.469307 53.6456,-9.904868 75.4546,-30.5691452 20.6642,-21.8089408 30.0998,-45.0989868 30.5691,-75.4545868 -0.4851,-13.017058 -2.5892,-24.772037 -6.4999,-35.708287 7.507,9.70681 13.6353,21.424207 17.9849,35.833587 6.0341,24.002456 6.926,47.917869 -0.8941,72.619583 l -78.4349,-49.429804 c 0,0 -0.5078,0.848386 -1.6289,2.246266 -1.1212,1.39795 -2.8768,3.337756 -5.453,5.536434 -2.2155,1.603294 -4.6993,3.080298 -7.3407,4.138271 -2.6411,1.057974 -5.4433,1.694228 -8.2936,1.759848 -2.8504,0.06569 -5.7525,-0.437699 -8.5371,-1.504299 -2.7845,-1.066529 -5.451,-2.690754 -7.7481,-4.765122 -3.6181,-3.618124 -5.1568,-8.240622 -4.9832,-13.567541 0.087,-2.663459 0.5932,-5.503765 1.4,-8.540506 0.8068,-3.036741 1.9171,-6.269492 3.1207,-9.790459 0.8154,-2.385001 1.7425,-5.127444 2.5643,-8.25922 0.8219,-3.131846 1.5369,-6.657408 1.877,-10.572738 0.3402,-3.91546 0.3039,-8.22428 -0.4025,-12.82599 -0.7063,-4.60178 -2.0846,-9.49843 -4.4274,-14.45065 -2.3655,-5.0515 -5.8077,-10.13616 -10.446,-14.89443 -4.6382,-4.75833 -10.4727,-9.18786 -17.4517,-12.83215 -6.9789,-3.64435 -15.1007,-6.49958 -24.1542,-8.05762 -9.0536,-1.55811 -19.0355,-1.81422 -29.6141,-0.274 -9.3525,1.43083 -19.0027,4.17023 -28.5438,8.26869 -9.5412,4.09846 -18.9696,9.55634 -27.8904,16.34004 -8.9209,6.78384 -17.3307,14.89357 -24.9032,24.20836 -7.5726,9.31472 -14.3047,19.834535 -19.9887,31.349967 -4.9168,10.361037 -8.9685,21.142019 -12.1532,32.067356 -3.1846,10.92533 -5.5017,21.994358 -7.0459,32.95066 -1.5442,10.956216 -2.3158,21.7993024 -2.505,32.2998947 -0.1891,10.5005783 0.2031,20.6587613 0.9019,30.2730303 1.3977,19.228489 4.0449,36.275045 5.1205,49.736364 0.5377,6.730709 0.6728,12.568138 0.059,17.328528 -0.6139,4.7604 -1.981,8.44526 4.6499,7.14736 6.6309,-1.2979 12.4718,-1.15911 19.2045,-0.61923 13.4654,1.07987 30.5104,3.7253 49.7335,5.11984 9.6116,0.69723 19.7661,1.08758 30.2624,0.89674 10.4963,-0.19079 21.3344,-0.96383 32.2853,-2.50879 10.9509,-1.54496 22.0142,-3.86223 32.9339,-7.04613 10.9196,-3.18387 21.6949,-7.234 32.0507,-12.148203 11.5154,-5.684064 22.0352,-12.416265 31.35,-19.988742 9.3148,-7.572477 17.4245,-15.98231 24.2083,-24.90324 6.7837,-8.920859 12.2415,-18.349138 16.34,-27.890342 4.0985,-9.541133 6.8378,-19.1913728 8.2686,-28.5437793 l 0,0 c 1.5403,-10.5785297 1.2842,-20.5606147 -0.2739,-29.6140557 -1.5581,-9.053583 -4.4133,-17.17527 -8.0576,-24.154273 -3.6443,-6.979002 -8.0739,-12.813411 -12.8323,-17.451678 -4.7583,-4.638126 -9.8428,-8.080463 -14.8942,-10.446018 -4.9523,-2.342786 -9.849,-3.721008 -14.4507,-4.427408 -4.6018,-0.706399 -8.9106,-0.742674 -12.826,-0.402555 -3.9154,0.340259 -7.4409,1.055215 -10.5727,1.877015 -3.1319,0.82187 -5.8742,1.748957 -8.2592,2.564322 -3.5211,1.203708 -6.7538,2.314007 -9.7906,3.120816 -3.0366,0.806738 -5.877,1.313239 -8.5405,1.400001 -5.3268,0.173453 -9.9522,-1.362383 -13.5674,-4.983335 -2.0744,-2.297107 -3.6986,-4.963607 -4.7652,-7.748194 -1.0666,-2.784515 -1.57,-5.686552 -1.5043,-8.536901 0.066,-2.85042 0.7019,-5.65254 1.7598,-8.2938 1.0581,-2.64125 2.5351,-5.12504 4.1383,-7.34047 2.1987,-2.57628 4.1385,-4.33188 5.5364,-5.453 1.3979,-1.12112 2.2463,-1.62896 2.2463,-1.62896 l -49.4298,-78.4349 c 24.7018,-7.82004 48.6172,-6.92816 72.6196,-0.89407 14.4093,4.3496 26.1267,10.47788 35.8337,17.98488 -10.9364,-3.91072 -22.6914,-6.01476 -35.7084,-6.49984 -30.3557,0.46931 -53.6457,9.9048 -75.4546,30.56908 -20.6643,21.80894 -30.0998,45.09891 -30.5692,75.454587 l 10e-5,7e-5 c 1.132,30.373136 11.0781,53.874579 32.2233,76.139653 z"
           style="color:#000000;clip-rule:nonzero;display:inline;overflow:visible;visibility:visible;isolation:auto;mix-blend-mode:normal;color-interpolation:sRGB;color-interpolation-filters:linearRGB;solid-color:#000000;solid-opacity:1;fill:none;fill-opacity:1;fill-rule:nonzero;stroke:#6969ff;stroke-width:0.93345094;stroke-linecap:butt;stroke-linejoin:bevel;stroke-miterlimit:4;stroke-dasharray:2.80035278, 0.93345092;stroke-dashoffset:0;stroke-opacity:1;marker:none;color-rendering:auto;image-rendering:auto;shape-rendering:auto;text-rendering:auto;enable-background:accumulate" />
        <path
           style="color:#000000;clip-rule:nonzero;display:inline;overflow:visible;visibility:visible;isolation:auto;mix-blend-mode:normal;color-interpolation:sRGB;color-interpolation-filters:linearRGB;solid-color:#000000;solid-opacity:1;fill:none;fill-opacity:1;fill-rule:nonzero;stroke:#6969ff;stroke-width:0.93345094;stroke-linecap:butt;stroke-linejoin:bevel;stroke-miterlimit:4;stroke-dasharray:2.80035278, 0.93345092;stroke-dashoffset:0;stroke-opacity:1;marker:none;color-rendering:auto;image-rendering:auto;shape-rendering:auto;text-rendering:auto;enable-background:accumulate"
           d="m 2085.8954,-10.941625 c 21.1451,-22.265096 31.0912,-45.766567 32.2232,-76.139703 l 0,-7.1e-5 c -0.4693,-30.355601 -9.9049,-53.645651 -30.5692,-75.454591 -21.8089,-20.66427 -45.099,-30.09984 -75.4546,-30.56914 -13.017,0.48514 -24.772,2.58921 -35.7082,6.49993 9.7068,-7.507 21.4242,-13.63528 35.8335,-17.9849 24.0025,-6.03417 47.9179,-6.92604 72.6196,0.89406 l -49.4298,78.4349 c 0,0 0.8484,0.50785 2.2463,1.62896 1.3979,1.12119 3.3377,2.87673 5.5364,5.453 1.6033,2.21551 3.0803,4.69929 4.1383,7.34062 1.058,2.64118 1.6942,5.4433 1.7598,8.29365 0.066,2.850424 -0.4377,5.752461 -1.5043,8.537047 -1.0665,2.784516 -2.6907,5.451015 -4.7651,7.748123 -3.6181,3.618124 -8.2406,5.156788 -13.5675,4.983264 -2.6635,-0.08676 -5.5038,-0.593192 -8.5405,-1.400001 -3.0368,-0.806809 -6.2695,-1.917108 -9.7905,-3.120745 -2.385,-0.815365 -5.1274,-1.742523 -8.2592,-2.564323 -3.1319,-0.82187 -6.6574,-1.536826 -10.5727,-1.877015 -3.9155,-0.340189 -8.2243,-0.303843 -12.826,0.402556 -4.6018,0.706329 -9.4985,2.084551 -14.4507,4.427408 -5.0515,2.365484 -10.1361,5.80768 -14.8944,10.446018 -4.7583,4.638125 -9.1879,10.472675 -12.8322,17.451678 -3.6443,6.978932 -6.4995,15.10069 -8.0576,24.154202 -1.5581,9.053583 -1.8142,19.035527 -0.274,29.6141266 1.4308,9.3524064 4.1702,19.0026464 8.2687,28.5437094 4.0985,9.541204 9.5563,18.969624 16.34,27.890483 6.7839,8.920859 14.8936,17.330692 24.2084,24.90317 9.3147,7.572548 19.8346,14.304699 31.35,19.988777 10.361,4.916722 21.142,8.968442 32.0674,12.153112 10.9253,3.1846 21.9943,5.50179 32.9506,7.04589 10.9563,1.54426 21.7993,2.31585 32.2999,2.505 10.5006,0.18908 20.6588,-0.20301 30.273,-0.90191 19.2285,-1.39767 36.2751,-4.04487 49.7364,-5.12038 6.7307,-0.53782 12.5681,-0.67288 17.3285,-0.059 4.7604,0.61391 8.4453,1.98103 7.1474,-4.64986 -1.2979,-6.6309 -1.1591,-12.471807 -0.6196,-19.204524 1.0799,-13.465435 3.7253,-30.510385 5.1199,-49.733507 0.6972,-9.611561 1.0875,-19.76618 0.8966,-30.262403 -0.1907,-10.496293 -0.9637,-21.334401 -2.5087,-32.285293 -1.545,-10.950892 -3.8622,-22.014214 -7.0462,-32.933923 -3.1838,-10.919567 -7.234,-21.694884 -12.1481,-32.050675 -5.6841,-11.515446 -12.4163,-22.035215 -19.9888,-31.350005 -7.5725,-9.31479 -15.9823,-17.42453 -24.9033,-24.2083 -8.9208,-6.7837 -18.3491,-12.24157 -27.8903,-16.34003 -9.5411,-4.09854 -19.1914,-6.8378 -28.5438,-8.26863 l 0,0 c -10.5785,-1.54029 -20.5606,-1.28417 -29.614,0.27394 -9.0536,1.55811 -17.1753,4.41326 -24.1543,8.05755 -6.979,3.64429 -12.8134,8.07396 -17.4517,12.83229 -4.6381,4.75833 -8.0805,9.84286 -10.446,14.89428 -2.3428,4.9523 -3.721,9.84894 -4.4274,14.45065 -0.7064,4.60185 -0.7427,8.91061 -0.4026,12.826 0.3403,3.91539 1.0552,7.440957 1.877,10.572733 0.8219,3.131847 1.749,5.874219 2.5644,8.25922 1.2037,3.521038 2.314,6.753789 3.1208,9.790529 0.8067,3.036671 1.3132,5.877048 1.4,8.540507 0.1734,5.326847 -1.3624,9.952174 -4.9834,13.56747 -2.2971,2.074368 -4.9636,3.698593 -7.7481,4.765192 -2.7846,1.06653 -5.6866,1.569919 -8.5369,1.504299 -2.8505,-0.06569 -5.6526,-0.701945 -8.2938,-1.759847 -2.6413,-1.058044 -5.1251,-2.535049 -7.3405,-4.138272 -2.5763,-2.198678 -4.3319,-4.138554 -5.453,-5.536434 -1.1211,-1.397879 -1.629,-2.246266 -1.629,-2.246266 l -78.4349,49.429805 c -7.82,-24.701786 -6.9281,-48.617198 -0.894,-72.619584 4.3496,-14.409351 10.4779,-26.126752 17.9849,-35.833702 -3.9108,10.9364 -6.0148,22.691345 -6.4999,35.708332 0.4693,30.355741 9.9048,53.645717 30.5691,75.4546574 21.8089,20.6642766 45.0989,30.0997686 75.4546,30.5691456 l 0,-7.1e-5 c 30.3732,-1.132007 53.8746,-11.0781 76.1397,-32.22328 z"
           id="path5417"
           inkscape:connector-curvature="0"
           sodipodi:nodetypes="cccccccccscssscsssssscssscssscsssssscssssscsssccssscsssssscssscscccccccccc" />
      </g>
    </g>
  </g>
  <g
     inkscape:groupmode="layer"
     id="layer2"
     inkscape:label="Writing">
    <flowRoot
       transform="translate(47.495,-567.56946)"
       style="font-style:normal;font-variant:normal;font-weight:bold;font-stretch:normal;font-size:80px;line-height:100%;font-family:'Nimbus Sans L';-inkscape-font-specification:'Nimbus Sans L, Bold';text-align:start;letter-spacing:0px;word-spacing:0px;writing-mode:lr-tb;text-anchor:start;display:inline;fill:#ffffff;fill-opacity:1;stroke:none;stroke-width:1px;stroke-linecap:butt;stroke-linejoin:miter;stroke-opacity:1"
       id="flowRoot4505-8-2-3"
       xml:space="preserve"><flowRegion
         id="flowRegion4507-5-8-6"><rect
           style="font-style:normal;font-variant:normal;font-weight:bold;font-stretch:normal;font-size:80px;line-height:100%;font-family:'Nimbus Sans L';-inkscape-font-specification:'Nimbus Sans L, Bold';text-align:start;writing-mode:lr-tb;text-anchor:start;fill:#ffffff"
           y="650.19684"
           x="0"
           height="347.67719"
           width="744.09448"
           id="rect4509-7-4-7" /></flowRegion><flowPara
         style="font-style:normal;font-variant:normal;font-weight:normal;font-stretch:normal;font-size:20px;line-height:100%;font-family:'Fira Sans';-inkscape-font-specification:'Fira Sans';text-align:start;letter-spacing:0px;writing-mode:lr-tb;text-anchor:start;fill:#ffffff"
         id="flowPara3451"><flowSpan
           style="font-style:normal;font-variant:normal;font-weight:bold;font-stretch:normal;font-size:20px;font-family:'Fira Sans';-inkscape-font-specification:'Fira Sans Bold'"
           id="flowSpan3463">Benung.</flowSpan><flowSpan
           style="font-style:normal;font-variant:normal;font-weight:300;font-stretch:normal;font-size:20px;font-family:'Fira Sans';-inkscape-font-specification:'Fira Sans Light'"
           id="flowSpan3465"> The Ayeri</flowSpan></flowPara><flowPara
         style="font-style:normal;font-variant:normal;font-weight:300;font-stretch:normal;font-size:20px;line-height:100%;font-family:'Fira Sans';-inkscape-font-specification:'Fira Sans Light';text-align:start;letter-spacing:0px;writing-mode:lr-tb;text-anchor:start;fill:#ffffff"
         id="flowPara3457">Language Resource</flowPara></flowRoot>    <g
       style="display:inline"
       id="g4465"
       transform="matrix(0.82663509,0,0,0.82663509,-30.744757,-113.59347)">
      <g
         id="g5557"
         transform="matrix(0.8984736,0,0,0.8984736,65.090378,76.357709)">
        <flowRoot
           transform="translate(-103.25,-31.791919)"
           style="font-style:normal;font-variant:normal;font-weight:bold;font-stretch:normal;font-size:90px;line-height:125%;font-family:'Nimbus Sans L';-inkscape-font-specification:'Nimbus Sans L, Bold';text-align:end;letter-spacing:0px;word-spacing:0px;writing-mode:lr-tb;text-anchor:end;fill:#181818;fill-opacity:1;stroke:none;stroke-width:1px;stroke-linecap:butt;stroke-linejoin:miter;stroke-opacity:1"
           id="flowRoot4207"
           xml:space="preserve"><flowRegion
             id="flowRegion4209"><rect
               style="font-style:normal;font-variant:normal;font-weight:bold;font-stretch:normal;font-size:90px;line-height:125%;font-family:'Nimbus Sans L';-inkscape-font-specification:'Nimbus Sans L, Bold';text-align:end;writing-mode:lr-tb;text-anchor:end;fill:#181818;fill-opacity:1"
               y="650.19684"
               x="0"
               height="347.67719"
               width="744.09448"
               id="rect4211" /></flowRegion><flowPara
             style="font-style:normal;font-variant:normal;font-weight:bold;font-stretch:normal;font-size:80px;line-height:100%;font-family:'Fira Sans';-inkscape-font-specification:'Fira Sans Bold';letter-spacing:0px;fill:#181818;fill-opacity:1"
             id="flowPara4213"><flowSpan
               style="font-style:normal;font-variant:normal;font-weight:500;font-stretch:normal;font-family:'Fira Sans';-inkscape-font-specification:'Fira Sans Medium';fill:#181818;fill-opacity:1"
               id="flowSpan4215">A </flowSpan><flowSpan
               id="flowSpan4217"
               style="font-style:normal;font-variant:normal;font-weight:bold;font-stretch:normal;font-size:105px;line-height:100%;font-family:'Fira Sans';-inkscape-font-specification:'Fira Sans Bold';letter-spacing:0px;fill:#181818;fill-opacity:1">Grammar</flowSpan></flowPara><flowPara
             id="flowPara4219"
             style="font-style:normal;font-variant:normal;font-weight:bold;font-stretch:normal;font-size:80px;line-height:100%;font-family:'Fira Sans';-inkscape-font-specification:'Fira Sans Bold';letter-spacing:0px;fill:#181818;fill-opacity:1"><flowSpan
               style="font-style:normal;font-variant:normal;font-weight:500;font-stretch:normal;font-family:'Fira Sans';-inkscape-font-specification:'Fira Sans Medium';fill:#181818;fill-opacity:1"
               id="flowSpan4221">of </flowSpan><flowSpan
               id="flowSpan4223"
               style="font-style:normal;font-variant:normal;font-weight:bold;font-stretch:normal;font-size:105px;line-height:100%;font-family:'Fira Sans';-inkscape-font-specification:'Fira Sans Bold';letter-spacing:0px;fill:#181818;fill-opacity:1">Ayeri</flowSpan></flowPara></flowRoot>        <flowRoot
           xml:space="preserve"
           id="flowRoot4505"
           style="font-style:normal;font-variant:normal;font-weight:bold;font-stretch:normal;font-size:90px;line-height:125%;font-family:'Nimbus Sans L';-inkscape-font-specification:'Nimbus Sans L, Bold';text-align:end;letter-spacing:0px;word-spacing:0px;writing-mode:lr-tb;text-anchor:end;fill:#ffffff;fill-opacity:1;stroke:none;stroke-width:1px;stroke-linecap:butt;stroke-linejoin:miter;stroke-opacity:1"
           transform="translate(-107.25,-35.791919)"><flowRegion
             id="flowRegion4507"><rect
               id="rect4509"
               width="744.09448"
               height="347.67719"
               x="0"
               y="650.19684"
               style="font-style:normal;font-variant:normal;font-weight:bold;font-stretch:normal;font-size:90px;line-height:125%;font-family:'Nimbus Sans L';-inkscape-font-specification:'Nimbus Sans L, Bold';text-align:end;writing-mode:lr-tb;text-anchor:end;fill:#ffffff" /></flowRegion><flowPara
             id="flowPara4511"
             style="font-style:normal;font-variant:normal;font-weight:bold;font-stretch:normal;font-size:80px;line-height:100%;font-family:'Fira Sans';-inkscape-font-specification:'Fira Sans Bold';letter-spacing:0px;fill:#ffbf00;fill-opacity:1"><flowSpan
               id="flowSpan4499"
               style="font-style:normal;font-variant:normal;font-weight:500;font-stretch:normal;font-family:'Fira Sans';-inkscape-font-specification:'Fira Sans Medium';fill:#ffbf00;fill-opacity:1">A </flowSpan><flowSpan
               style="font-style:normal;font-variant:normal;font-weight:bold;font-stretch:normal;font-size:105px;line-height:100%;font-family:'Fira Sans';-inkscape-font-specification:'Fira Sans Bold';letter-spacing:0px;fill:#ffbf00;fill-opacity:1"
               id="flowSpan4517">Grammar</flowSpan></flowPara><flowPara
             style="font-style:normal;font-variant:normal;font-weight:bold;font-stretch:normal;font-size:80px;line-height:100%;font-family:'Fira Sans';-inkscape-font-specification:'Fira Sans Bold';letter-spacing:0px;fill:#ffbf00;fill-opacity:1"
             id="flowPara4513"><flowSpan
               id="flowSpan4501"
               style="font-style:normal;font-variant:normal;font-weight:500;font-stretch:normal;font-family:'Fira Sans';-inkscape-font-specification:'Fira Sans Medium';fill:#ffbf00;fill-opacity:1">of </flowSpan><flowSpan
               style="font-style:normal;font-variant:normal;font-weight:bold;font-stretch:normal;font-size:105px;line-height:100%;font-family:'Fira Sans';-inkscape-font-specification:'Fira Sans Bold';letter-spacing:0px;fill:#ffbf00;fill-opacity:1"
               id="flowSpan4519">Ayeri</flowSpan></flowPara></flowRoot>      </g>
      <flowRoot
         transform="translate(-108.11009,250.36391)"
         style="font-style:normal;font-variant:normal;font-weight:bold;font-stretch:normal;font-size:80px;line-height:100%;font-family:'Nimbus Sans L';-inkscape-font-specification:'Nimbus Sans L, Bold';text-align:end;letter-spacing:0px;word-spacing:0px;writing-mode:lr-tb;text-anchor:end;fill:#ffffff;fill-opacity:1;stroke:none;stroke-width:1px;stroke-linecap:butt;stroke-linejoin:miter;stroke-opacity:1"
         id="flowRoot4505-8"
         xml:space="preserve"><flowRegion
           id="flowRegion4507-5"><rect
             style="font-style:normal;font-variant:normal;font-weight:bold;font-stretch:normal;font-size:80px;line-height:100%;font-family:'Nimbus Sans L';-inkscape-font-specification:'Nimbus Sans L, Bold';text-align:end;writing-mode:lr-tb;text-anchor:end;fill:#ffffff"
             y="650.19684"
             x="0"
             height="347.67719"
             width="744.09448"
             id="rect4509-7" /></flowRegion><flowPara
           id="flowPara4616"
           style="font-style:normal;font-variant:normal;font-weight:normal;font-stretch:normal;font-size:60px;line-height:100%;font-family:'Fira Sans';-inkscape-font-specification:'Fira Sans';text-align:end;letter-spacing:-3px;writing-mode:lr-tb;text-anchor:end;fill:#ffffff">Documenting a</flowPara><flowPara
           id="flowPara4624"
           style="font-style:normal;font-variant:normal;font-weight:normal;font-stretch:normal;font-size:60px;line-height:100%;font-family:'Fira Sans';-inkscape-font-specification:'Fira Sans';text-align:end;letter-spacing:-3px;writing-mode:lr-tb;text-anchor:end;fill:#ffffff">fictional language</flowPara></flowRoot>      <flowRoot
         transform="translate(-112.95551,-138.12102)"
         style="font-style:normal;font-variant:normal;font-weight:bold;font-stretch:normal;font-size:80px;line-height:100%;font-family:'Nimbus Sans L';-inkscape-font-specification:'Nimbus Sans L, Bold';text-align:end;letter-spacing:0px;word-spacing:0px;writing-mode:lr-tb;text-anchor:end;fill:#ffffff;fill-opacity:1;stroke:none;stroke-width:1px;stroke-linecap:butt;stroke-linejoin:miter;stroke-opacity:1"
         id="flowRoot4505-8-2"
         xml:space="preserve"><flowRegion
           id="flowRegion4507-5-8"><rect
             style="font-style:normal;font-variant:normal;font-weight:bold;font-stretch:normal;font-size:80px;line-height:100%;font-family:'Nimbus Sans L';-inkscape-font-specification:'Nimbus Sans L, Bold';text-align:end;writing-mode:lr-tb;text-anchor:end;fill:#ffffff"
             y="650.19684"
             x="0"
             height="347.67719"
             width="744.09448"
             id="rect4509-7-4" /></flowRegion><flowPara
           id="flowPara4624-5"
           style="font-style:normal;font-variant:normal;font-weight:normal;font-stretch:normal;font-size:30px;line-height:100%;font-family:'Fira Sans';-inkscape-font-specification:'Fira Sans';text-align:end;letter-spacing:0px;writing-mode:lr-tb;text-anchor:end;fill:#ffffff">Carsten Becker</flowPara></flowRoot>    </g>
  </g>
</svg>
